<svg xmlns="http://www.w3.org/2000/svg" viewBox="0 0 492.72 720.29"><defs><style>.cls-1{fill:#e30613;}</style></defs><g id="Calque_2" data-name="Calque 2"><g id="Calque_1-2" data-name="Calque 1"><path class="cls-1" d="M437.73,256.52c-27.47-26.46-79.33-44.36-79.33-44.36-52.88,4.73-51.57-53.9-51.57-53.9,6.89,64.56,61.59,51.81,70.11,35.54s.62-25.12-25.45-28.22-27.13-28.14-27.13-28.14c23.72,16.78,46.3,6.42,46.3,6.42-19.32-1.7-33.48-25-33.48-25C338.82,83.07,366.05,71,366.05,71c-22.82-2.52-45,20.37-45,20.37-2.61.12-5.15.28-7.64.48l0-.24c.31-5.75,18.36-25.43,5.47-47.07-1.43,5.82-4.62,10.11-9.81,14.09,1-7.26-1.06-14.57-3.71-21.49-2.47,7.68-9.9,14.1-18.87,16.29a35.59,35.59,0,0,0-3.92-24.81c-3.87,8-8.94,16.92-18.66,19.31,6.42-12.54.75-28.58-12.68-35.8C243.69,8,233.88,6.29,228.84,0c4.53,6.6,9,13.48,10.17,21.09,3.17,20.12-16.73,38.91-15,59.17,1.14,13.68,11.67,24.68,20.54,36.34-20.47,19.1-23.07,46.6-13.14,74.53,9.77,27.5,36.49,55.9,58.25,75.8,44.56,40.73,47.16,66.63,47.16,66.63,2.06-50.29,49.54-55.64,49.54-55.64-49.54,18.3-43.63,57.07-44.91,106.49-1.26,49-41.5,111.25-42.13,112.21C333.48,406.19,273.7,238,144.15,236.33c-157.17-2-171,157.09-112,218.21,52.62,54.59,120.07,46.6,120.07,46.6s-51.3-6.22-64.82-50.49c-2.78-9.11-1.84-18.71-1.43-27.13a179.64,179.64,0,0,1,2.58-22.31c1-6.28,2.34-11.32,3.11-14.71.81-3.21,1.27-5,1.32-5.22,0,.2-.27,2-.71,5.06-.4,3.29-1,8.1-1.44,14.11a189.06,189.06,0,0,0-.45,21.07,125.76,125.76,0,0,0,2.26,19.34c7-53.65,82.3-97.12,150.59-34.33,37.3,34.29,48.6,84.78,43.12,134.57-6.21,56.43,4.27,84.6,4.27,84.6s-21.4,2.23-33.86,18.89c0,0,92.72-26.47,92.06,75.7,0,0,14-76.09-41.32-94.53,0,0-7.62-11-9.07-23.85-2.8-25,9.77-47.85,17.52-57.58,28.63-36,74.71-43.62,117.89-81.89C550,359.51,462.83,280.71,437.73,256.52ZM252.3,128.42c-13.65,21.11-10.71,46.38-9.1,53.85-7.21-30.3-1.9-48.22,6.2-58.78a39.7,39.7,0,0,1,24.3-14.87A59.79,59.79,0,0,0,252.3,128.42Zm39.07-1.94a6.9,6.9,0,1,1,6.29-7.17A6.74,6.74,0,0,1,291.37,126.48ZM277,369.54c-1.86-2.94-4.87-7.09-8.73-12.3s-8.93-11.24-14.95-17.88a214.86,214.86,0,0,0-22-20.37,179.29,179.29,0,0,0-29.51-19.13,157.21,157.21,0,0,0-36.41-13.42,143.78,143.78,0,0,0-20.13-2.95,135.29,135.29,0,0,0-20.71.39A101.42,101.42,0,0,0,104.05,288c-1.7.46-3.35,1-5,1.66s-3.34,1.17-4.85,1.89-3.07,1.27-4.72,2.11l-5,2.53-2.14,1.19c-.77.41-1.51.89-2.27,1.33-1.52.89-3,1.86-4.43,2.83a90.64,90.64,0,0,0-8.35,6.33A94.65,94.65,0,0,0,36,359.29a99.66,99.66,0,0,0-.79,38,123.88,123.88,0,0,0,10.83,33,161.71,161.71,0,0,0,15.68,25.42,211.78,211.78,0,0,0,15,17.8c4.46,4.7,8.14,8.26,10.66,10.67,2.41,2.23,3.77,3.48,3.93,3.62L87,484.69c-2.78-2.12-7-5.11-11.94-9.41a174.86,174.86,0,0,1-17-16.56,147.23,147.23,0,0,1-18.31-25.07,120.61,120.61,0,0,1-13.66-34.57,102.93,102.93,0,0,1-.85-42,100.7,100.7,0,0,1,18.12-41.45,106.18,106.18,0,0,1,16-17.14,108.81,108.81,0,0,1,9.33-7.21c1.63-1.11,3.26-2.21,5-3.23.84-.51,1.67-1.05,2.53-1.52l1.28-.73.64-.37.32-.18.49-.26,5-2.49c1.69-.83,3.67-1.61,5.49-2.4s3.71-1.44,5.56-2.11,3.7-1.3,5.59-1.8a113.82,113.82,0,0,1,22.87-4.37,122.37,122.37,0,0,1,22.81,0,155.29,155.29,0,0,1,21.8,3.85,153.32,153.32,0,0,1,20.18,6.84,167.62,167.62,0,0,1,18.13,9.1,172,172,0,0,1,16,10.49c4.88,3.75,9.49,7.53,13.68,11.38a183,183,0,0,1,21,22.73,192.45,192.45,0,0,1,13.38,19.6c1.76,2.75,3.08,5.38,4.31,7.61s2.17,4.17,2.94,5.74C279.14,372.35,280,374,280,374Zm190-16.31a102.41,102.41,0,0,1-5,14.37,63.14,63.14,0,0,1-3.6,6.95c-1.37,2.23-2.81,4.43-4.38,6.52-6.23,8.39-13.67,15.71-21.38,22.57-15.49,13.65-32.13,25.54-47.39,37s-29.34,22.4-40.39,32.89a169,169,0,0,0-14.24,15.1,93,93,0,0,0-9.15,13.12,59.51,59.51,0,0,0-4.38,9.34c-.69,1.83-1,3-1.15,3.34.09-.35.39-1.53,1-3.4a62.39,62.39,0,0,1,4-9.58,95,95,0,0,1,8.65-13.66A154,154,0,0,1,343.33,472c10.79-11,24.54-22.52,39.45-34.51s31.06-24.5,45.71-38.37c7.28-7,14.18-14.3,19.64-22.26s8.86-16.69,11.14-25.6,3-17.62,1.62-25.64a48.11,48.11,0,0,0-8.9-21,66.53,66.53,0,0,0-14.28-14,96.4,96.4,0,0,0-13.49-8.25,95.15,95.15,0,0,0-12.83-5.51s1.27.16,3.63.63a80.35,80.35,0,0,1,10.09,2.78A85.34,85.34,0,0,1,440,287.06a65.14,65.14,0,0,1,16.7,13.76,51.93,51.93,0,0,1,11.49,23.44,59.71,59.71,0,0,1,1.06,14.33A73.73,73.73,0,0,1,467,353.23Z"/></g></g></svg>