<svg xmlns="http://www.w3.org/2000/svg" width="417.308" height="610.049" viewBox="0 0 417.308 610.049">
  <path id="Tracé_14" data-name="Tracé 14" d="M6099.248,2615.154c-23.268-22.413-67.189-37.576-67.189-37.576-44.78,4.009-43.674-45.648-43.674-45.648,5.834,54.681,52.161,43.878,59.379,30.105s.522-21.282-21.558-23.9-22.973-23.838-22.973-23.838c20.088,14.215,39.211,5.44,39.211,5.44-16.362-1.439-28.353-21.134-28.353-21.134,1.384-30.356,24.449-40.6,24.449-40.6-19.332-2.139-38.129,17.248-38.129,17.248-2.208.1-4.36.24-6.469.412.006-.068.013-.136.018-.2.265-4.869,15.557-21.54,4.637-39.868-1.21,4.924-3.909,8.559-8.307,11.934.872-6.15-.9-12.347-3.142-18.2-2.091,6.5-8.388,11.935-15.981,13.792a30.16,30.16,0,0,0-3.32-21.01c-3.277,6.763-7.576,14.333-15.809,16.356,5.442-10.619.633-24.208-10.737-30.326-6.394-3.444-14.707-4.913-18.975-10.244,3.838,5.59,7.594,11.418,8.615,17.862,2.686,17.038-14.167,32.958-12.727,50.113.963,11.591,9.886,20.9,17.394,30.782-17.339,16.17-19.536,39.468-11.129,63.123,8.276,23.286,30.9,47.339,49.338,64.193,37.741,34.5,39.937,56.44,39.937,56.44,1.751-42.6,41.959-47.125,41.959-47.125-41.959,15.5-36.948,48.33-38.03,90.191-1.069,41.529-35.153,94.219-35.688,95.036,28.959-76.589-21.675-219.04-131.394-220.453-133.116-1.721-144.787,133.042-94.883,184.809,44.567,46.234,101.7,39.469,101.7,39.469s-43.455-5.263-54.9-42.764c-2.354-7.711-1.562-15.842-1.211-22.979a151.987,151.987,0,0,1,2.181-18.89c.894-5.318,1.981-9.586,2.64-12.463.688-2.718,1.075-4.243,1.119-4.421-.019.172-.234,1.654-.6,4.286-.345,2.786-.831,6.862-1.223,11.953a158.224,158.224,0,0,0-.375,17.845,105.36,105.36,0,0,0,1.912,16.38c5.927-45.44,69.7-82.253,127.54-29.078,31.592,29.047,41.165,71.806,36.523,113.975-5.258,47.794,3.617,71.651,3.617,71.651s-18.127,1.888-28.679,16c0,0,78.532-22.42,77.967,64.113,0,0,11.9-64.439-34.993-80.057,0,0-6.456-9.285-7.679-20.2-2.375-21.165,8.271-40.526,14.838-48.767,24.25-30.448,63.276-36.948,99.849-69.365C6194.3,2702.38,6120.512,2635.635,6099.248,2615.154Zm-157.046-108.5c-11.566,17.88-9.07,39.284-7.71,45.606-6.105-25.659-1.606-40.841,5.25-49.781a33.622,33.622,0,0,1,20.586-12.593A50.609,50.609,0,0,0,5942.2,2506.658Zm33.093-1.643a5.85,5.85,0,1,1,5.324-6.074A5.709,5.709,0,0,1,5975.294,2505.015Zm-12.163,205.863c-1.581-2.5-4.132-6.013-7.4-10.421s-7.564-9.519-12.666-15.145a181.394,181.394,0,0,0-18.656-17.248,152.169,152.169,0,0,0-24.988-16.208,133.4,133.4,0,0,0-30.842-11.362,120.844,120.844,0,0,0-17.051-2.5,114.412,114.412,0,0,0-17.536.327,86.2,86.2,0,0,0-17.358,3.492,43.644,43.644,0,0,0-4.219,1.408c-1.389.516-2.822.99-4.108,1.6-1.333.6-2.6,1.076-4,1.783l-4.212,2.146-1.82,1.008c-.652.351-1.279.751-1.919,1.125-1.284.758-2.521,1.574-3.75,2.4a78.162,78.162,0,0,0-7.077,5.361,80.21,80.21,0,0,0-26.508,43.546,84.327,84.327,0,0,0-.665,32.176,104.862,104.862,0,0,0,9.168,27.947,137.6,137.6,0,0,0,13.282,21.528,178.1,178.1,0,0,0,12.729,15.07c3.781,3.984,6.893,7,9.032,9.039,2.041,1.888,3.191,2.946,3.328,3.067-.155-.1-1.427-1.008-3.691-2.619-2.359-1.79-5.927-4.323-10.119-7.969a147.365,147.365,0,0,1-14.408-14.025,124.631,124.631,0,0,1-15.513-21.232,101.859,101.859,0,0,1-11.565-29.281,87.067,87.067,0,0,1-.72-35.563,85.1,85.1,0,0,1,15.347-35.1,89.909,89.909,0,0,1,13.527-14.517,91.942,91.942,0,0,1,7.908-6.106c1.379-.941,2.761-1.876,4.188-2.737.713-.431,1.413-.886,2.146-1.284l1.083-.622.547-.313.27-.154.412-.215,4.231-2.116c1.426-.7,3.105-1.36,4.647-2.03,1.575-.718,3.143-1.224,4.71-1.789s3.129-1.1,4.735-1.525a96.813,96.813,0,0,1,19.368-3.7,104.038,104.038,0,0,1,19.32.03,121.107,121.107,0,0,1,35.551,9.053,139.825,139.825,0,0,1,15.355,7.71,144.946,144.946,0,0,1,13.551,8.88c4.139,3.178,8.037,6.375,11.584,9.641a155.459,155.459,0,0,1,17.788,19.251,163.258,163.258,0,0,1,11.333,16.6c1.5,2.337,2.607,4.562,3.653,6.45s1.839,3.53,2.491,4.863c1.3,2.663,2,4.078,2,4.078S5964.761,2713.35,5963.131,2710.878Zm160.89-13.816a86.362,86.362,0,0,1-4.21,12.168,52.92,52.92,0,0,1-3.044,5.884c-1.163,1.894-2.38,3.751-3.708,5.522a128.589,128.589,0,0,1-18.115,19.117c-13.115,11.565-27.208,21.631-40.133,31.371-12.961,9.678-24.847,18.975-34.206,27.86a143.29,143.29,0,0,0-12.063,12.784,78.869,78.869,0,0,0-7.748,11.111,51.266,51.266,0,0,0-3.714,7.913c-.579,1.55-.88,2.534-.971,2.835.073-.3.331-1.3.835-2.884a52.522,52.522,0,0,1,3.375-8.117,80.469,80.469,0,0,1,7.325-11.565,129.878,129.878,0,0,1,11.656-13.4c9.139-9.3,20.778-19.08,33.414-29.231,12.592-10.195,26.3-20.753,38.706-32.5a122.986,122.986,0,0,0,16.64-18.846c4.7-6.658,7.5-14.136,9.431-21.68a53.532,53.532,0,0,0,1.371-21.724,40.739,40.739,0,0,0-7.532-17.8,56.565,56.565,0,0,0-12.1-11.83,88.049,88.049,0,0,0-22.292-11.653s1.078.135,3.075.535a67.206,67.206,0,0,1,8.548,2.355,71.849,71.849,0,0,1,12.647,5.743,55.2,55.2,0,0,1,14.143,11.651,44.015,44.015,0,0,1,9.727,19.85,50.263,50.263,0,0,1,.9,12.138A62.091,62.091,0,0,1,6124.021,2697.062Z" transform="translate(-5728.513 -2397.891)" fill="#fff"/>
</svg>
