<svg xmlns="http://www.w3.org/2000/svg" viewBox="0 0 811.95 811.92"><defs><style>.cls-1{fill:#1d1d1b;}</style></defs><g id="Calque_2" data-name="Calque 2"><g id="Calque_1-2" data-name="Calque 1"><path class="cls-1" d="M405.82,811.92a405.09,405.09,0,1,1,164.82-34.8A405.58,405.58,0,0,1,405.82,811.92ZM406.13,30A376.19,376.19,0,0,0,123.42,158C-13.33,313.75,2.17,551.76,158,688.51A375.95,375.95,0,0,0,688.53,654C825.28,498.17,809.78,260.16,654,123.41A375.56,375.56,0,0,0,406.13,30Z"/><path class="cls-1" d="M128.37,494.57l-7.45-22.86,33-10.74c16.63-5.42,28.84-.2,34.07,15.83s-1.57,27.45-18.2,32.87l-54,17.61c-16.63,5.41-28.84.2-34.06-15.84S83.2,484,99.83,478.58l10.1-3.29,5,15.44-11.13,3.63c-7.43,2.42-9.18,6.6-7.49,11.8s5.58,7.54,13,5.12L165.46,493c7.43-2.42,9-6.56,7.34-11.76s-5.43-7.59-12.85-5.17l-19.15,6.24,2.42,7.42Z"/><path class="cls-1" d="M94.93,453.75C77.48,455,66.87,446.47,65.7,429.64s8.15-26.71,25.6-27.92l56.71-4c17.44-1.21,28.05,7.28,29.23,24.11s-8.16,26.71-25.61,27.92Zm56.6-21.17c7.79-.54,10.51-4.17,10.13-9.63s-3.58-8.67-11.37-8.13l-58.88,4.11c-7.79.54-10.51,4.18-10.13,9.63s3.58,8.67,11.36,8.13Z"/><path class="cls-1" d="M70,354.06l83,15c7.68,1.39,11.06-1.49,12-6.87s-1.18-9.26-8.86-10.65l-83-15,2.89-16L158,335.38c17.21,3.11,25.49,13.49,22.49,30.09s-14.39,23.42-31.6,20.31L67,371Z"/><path class="cls-1" d="M200.63,300.67c-2.95-.3-4.77-.44-12.88-4.12l-15.64-7.1c-9.24-4.19-14.08-2.61-17.3,4.5l-2.45,5.41,40.53,18.38-7.1,15.64L86.24,288.23,97,264.62c7.36-16.21,18-19.76,33.41-12.79l7.82,3.55c10.24,4.64,15.44,10.94,15.55,19.39,6.82-6.33,15.52-5.47,25.9-.77L195,281c4.84,2.19,8.46,3.66,12.86,3.78ZM107.56,279l30.58,13.87,2.77-6.12c2.64-5.83,1.7-10.54-6.27-14.16l-9.81-4.45C117.72,265,113.5,266,111,271.5Z"/><path class="cls-1" d="M209,232.87l-50.63-60,15.75-18L256.3,227l-10.71,12.21-58.94-51.69,51.12,60.61-10.71,12.21L160.5,219l58.12,51-9.89,11.27-82.19-72.07,15.76-18Z"/><path class="cls-1" d="M243.24,161.39l19.87-12.7,8.41,13.16-19.87,12.69,17.24,27,25-16,8.41,13.16-39.48,25.23L204,131.82l39.48-25.23,8.41,13.16-25,16Z"/><path class="cls-1" d="M266.64,94.94l50-17.89,5.26,14.7L305,97.8,336.55,186l-16.17,5.79-31.57-88.21-16.91,6Z"/><path class="cls-1" d="M366.87,67.13c16.6-1.93,26.28,7,28.3,24.38l.4,3.41L379.43,96.8l-.52-4.5c-.9-7.76-4.34-10.34-9.77-9.71s-8.19,3.94-7.29,11.69c2.6,22.34,36.43,22.65,40,53.67,2,17.37-5.51,28.31-22.26,30.26s-26.59-7-28.61-24.34l-.78-6.67,16.14-1.88.9,7.76c.9,7.75,4.64,10.15,10.06,9.52s8.52-3.82,7.62-11.58c-2.6-22.33-36.43-22.65-40-53.67C342.89,80,350.27,69.06,366.87,67.13Z"/><path class="cls-1" d="M456.5,175.56q-5.37,5.67-12.38,4.34a11.44,11.44,0,0,1-2.22-.64,8.91,8.91,0,0,1-2.1-1.3,8.09,8.09,0,0,1-1.87-2.22,15,15,0,0,1-1.34-3.5,23.36,23.36,0,0,1-.7-5,54.86,54.86,0,0,1,.26-6.9q.36-4.08,1.31-9.06l.83-4.38a86.08,86.08,0,0,1,3.09-12.14,38,38,0,0,1,3.36-7.55,11.78,11.78,0,0,1,3.69-3.82A8.27,8.27,0,0,1,452,122a14,14,0,0,1,3.53.26A11.43,11.43,0,0,1,461,125a15.87,15.87,0,0,1,4,5.76l5.56-29.33,6.91,1.31-15,79.35-6.92-1.31Zm7.7-40.67q-3.88-6.42-8.22-7.24a6.42,6.42,0,0,0-1.72-.13,4.89,4.89,0,0,0-1.68.54,4.54,4.54,0,0,0-1.78,1.83,34,34,0,0,0-1.78,3.58,41.05,41.05,0,0,0-1.92,6q-.94,3.74-1.9,8.81l-.83,4.38q-.83,4.34-1.25,7.73c-.29,2.27-.47,4.17-.53,5.68a20,20,0,0,0,.16,3.93,14.37,14.37,0,0,0,.61,2.57,3.46,3.46,0,0,0,1.08,1.5,5.3,5.3,0,0,0,1.29.77,10.89,10.89,0,0,0,1.48.37,8.79,8.79,0,0,0,4.81-.69,19.75,19.75,0,0,0,5.28-3.18Z"/><path class="cls-1" d="M478.91,151.62A59.07,59.07,0,0,1,483,142.3a26.25,26.25,0,0,1,4.23-5.81,11.31,11.31,0,0,1,4.47-2.8,11.58,11.58,0,0,1,4.62-.58,20.78,20.78,0,0,1,5,1.15q7.14,2.48,8.51,8.61t-2.4,17q-1.16,3.33-2,5.43L484.16,158l-2.81,8.11a61.69,61.69,0,0,0-2.46,8.76,13.49,13.49,0,0,0-.13,5.59,6.18,6.18,0,0,0,1.65,3.11,9.07,9.07,0,0,0,3.17,1.74,6.07,6.07,0,0,0,2.75.31,6.83,6.83,0,0,0,2.88-1.14,10.61,10.61,0,0,0,3-3.35,31.47,31.47,0,0,0,2.8-6l.13-.35,6.2,2.15-.09.26c-.87,2-1.73,3.65-2.56,5.1a24.91,24.91,0,0,1-3,4.15,13.83,13.83,0,0,1-3.68,3,10.68,10.68,0,0,1-4.47,1.21,13.74,13.74,0,0,1-5.42-.84q-5.62-2-8-5.27t-1.88-9.39q.47-6.08,4-16.11Zm21.15,8.18,0-.09c.38-1.19.8-2.39,1.25-3.59s.85-2.42,1.21-3.65.69-2.43,1-3.59a16.25,16.25,0,0,0,.49-3.33,11.36,11.36,0,0,0-.25-2.89,4.81,4.81,0,0,0-1.24-2.3,6.05,6.05,0,0,0-2.45-1.52,12.31,12.31,0,0,0-3.61-.75,4.62,4.62,0,0,0-2.93.94,16.69,16.69,0,0,0-2.28,2,13.84,13.84,0,0,0-2,3.54q-1.14,2.57-1.81,4.36t-2,5.66l-.05.14Z"/><path class="cls-1" d="M569.23,164.72l18.22,12.64-8.9,12.83-18.22-12.64-25.72,37.08-14.12-9.79L582.8,115l37.34,25.91-8.9,12.83L588,137.65Z"/><path class="cls-1" d="M584.7,260c1.47-2.57,2.33-4.18,9-10.12l12.8-11.47c7.56-6.77,8-11.83,2.84-17.64l-3.95-4.43-33.15,29.7-11.47-12.79,81.42-72.94,17.3,19.3c11.88,13.26,10.82,24.48-1.74,35.74l-6.4,5.73c-8.37,7.5-16.24,9.73-24,6.42,3.06,8.8-1.23,16.41-9.72,24L605,262.79c-4,3.55-6.76,6.27-8.64,10.26ZM642,183.54l-25,22.4,4.49,5c4.27,4.76,9,5.8,15.48,0l8-7.19c5.81-5.21,6.6-9.48,2.54-14Z"/><path class="cls-1" d="M624.33,326.31l-8-15.38,16.22-11.78-9.73-18.7-19,6.51-7.28-14,105-34.92,11.6,22.31ZM637,275.54l7.64,14.69,45.23-32.85Z"/><path class="cls-1" d="M705.6,326.81l-77.25,17.35L625,329.08l106.66-23.95,4.72,21-60,31.56,63.83-14.34,3.36,14.93-106.65,24L633,365Z"/><path class="cls-1" d="M676.25,440.83l-14.52-.49c-17.48-.59-27.17-9.66-26.61-26.52s10.85-25.26,28.33-24.67l56.81,1.9c17.48.59,27.17,9.66,26.61,26.52S736,442.83,718.54,442.24l-10.61-.35.54-16.23,11.71.39c7.8.26,10.88-3.07,11.06-8.54s-2.66-9-10.47-9.25l-59-2c-7.8-.26-10.73,3.08-10.91,8.54s2.51,9,10.32,9.25l15.6.52Z"/><path class="cls-1" d="M690.61,478.7l-6.26,22.73-15.06-4.14,6.26-22.74-30.86-8.49-7.88,28.6-15-4.14,12.43-45.17,105.39,29-12.43,45.17-15.06-4.14L720,486.78Z"/><path class="cls-1" d="M279.79,641.43l6.36,3L265.44,687.9l20.82,9.93-2.51,5.27-27.18-13Z"/><path class="cls-1" d="M312.27,695.19l-10.11,14.75-6.92-2,32.69-46.74,8,2.32,2.69,57-7.16-2.07-.82-17.91Zm18.59-.29L330,678.48c-.17-3.72,0-7,.05-10.24l-.16,0c-1.63,2.77-3.34,5.78-5.33,8.62l-9.41,13.54Z"/><path class="cls-1" d="M365.76,670.09,362.52,702c-1.22,11.95,3.6,17.59,10.77,18.32,7.88.8,13.6-3.93,14.8-15.72l3.24-31.86,7,.71-3.19,31.39c-1.68,16.49-11,22.3-22.68,21.11-11-1.12-18.64-8.18-16.94-24.91l3.22-31.62Z"/><path class="cls-1" d="M409.78,674.17A81,81,0,0,1,423,671.86c7.41-.67,12.41.33,15.94,3a13.76,13.76,0,0,1,5.15,9.91c.63,7-3.41,12.12-8.82,14.54l0,.24c4.2,1.07,7,4.67,8.79,10.14,2.43,7.34,4.17,12.41,5.47,14.39l-7.17.64c-1-1.52-2.63-6-4.67-12.53-2.26-7.27-5.46-9.8-11.78-9.47l-6.54.59,2.09,23.29-6.94.62ZM418.91,698l7.1-.64c7.42-.66,11.76-5.15,11.21-11.29-.62-6.94-5.92-9.52-13.26-8.86a30.4,30.4,0,0,0-6.81,1.17Z"/><path class="cls-1" d="M486.69,690.6l-20.36,4.7,4.37,19L493.49,709l1.31,5.7-29.65,6.84L453,669l28.48-6.57,1.32,5.69-21.61,5L465,689.68,485.4,685Z"/><path class="cls-1" d="M513.45,690.35l1.33,17.83-6.66,2.76L504.46,654l7.7-3.19,37.68,42.8L543,696.5,531.13,683Zm14.34-11.84-10.9-12.29c-2.46-2.8-4.43-5.45-6.37-8l-.14.06c.45,3.19,1,6.61,1.22,10.07l1.1,16.45Z"/><path class="cls-1" d="M542.64,642.06l-14.09,8.43-3-5.09,34.3-20.5,3,5.08-14.16,8.47,24.65,41.24-6.05,3.62Z"/><polygon class="cls-1" points="184.96 574.49 179.18 592.52 160.23 592.52 175.6 603.64 169.66 621.68 184.96 610.49 200.35 621.68 194.41 603.64 209.78 592.52 190.82 592.52 184.96 574.49"/><polygon class="cls-1" points="623.71 574.49 617.93 592.52 598.98 592.52 614.35 603.64 608.41 621.68 623.71 610.49 639.1 621.68 633.16 603.64 648.53 592.52 629.57 592.52 623.71 574.49"/><polygon class="cls-1" points="401.88 260.17 363.82 379.03 238.9 379.03 340.18 452.36 301.01 571.22 401.88 497.44 503.38 571.22 464.19 452.36 565.51 379.03 440.53 379.03 401.88 260.17"/></g></g></svg>