<svg xmlns="http://www.w3.org/2000/svg" viewBox="0 0 908.34 1127.75"><defs><style>.cls-1{fill:#fff;}.cls-2{fill:#b3a051;}</style></defs><g id="Calque_2" data-name="Calque 2"><g id="Calque_1-2" data-name="Calque 1"><path class="cls-1" d="M665.38,170.83c.22,1.12.37,1.74.37,1.74C665.61,172,665.51,171.41,665.38,170.83Z"/><path class="cls-1" d="M665.25,170.23c0,.21.09.41.13.6C665.34,170.62,665.29,170.43,665.25,170.23Z"/><path class="cls-2" d="M559.31,1127.75H342.9a20.35,20.35,0,0,1-20.21-17.88L210.33,199.06a20.4,20.4,0,0,1,13.51-21.73c5.61-2,139.67-47.83,335.33-47.83h.12a20.38,20.38,0,0,1,0,40.75h-.12c-151,0-266,29-306.32,40.73l108.06,876h198.4a20.38,20.38,0,0,1,0,40.75Z"/><path class="cls-2" d="M319.26,936.25a20.38,20.38,0,0,1,0-40.75h240a20.37,20.37,0,0,1,0,40.74Z"/><path class="cls-2" d="M414.76,821.87a20.39,20.39,0,0,1-20.23-18.15L339.68,307.14a20.38,20.38,0,1,1,40.51-4.46L435,799.27a20.37,20.37,0,0,1-18,22.48A21.34,21.34,0,0,1,414.76,821.87Z"/><path class="cls-2" d="M506.47,821.91a20.38,20.38,0,0,1-20.34-19.64l-18.58-516.2A20.35,20.35,0,0,1,487.17,265c11-1,20.67,8.37,21.08,19.61L526.84,800.8a20.36,20.36,0,0,1-19.62,21.09C507,821.91,506.72,821.91,506.47,821.91Z"/><path class="cls-2" d="M775.7,1127.75H559.31a20.38,20.38,0,0,1,0-40.75H757.67l108-876c-40.31-11.72-155.29-40.71-306.26-40.71h-.12a20.38,20.38,0,1,1,0-40.75h.12c195.62,0,329.64,45.84,335.25,47.79A20.37,20.37,0,0,1,908.19,199L795.91,1109.87A20.36,20.36,0,0,1,775.7,1127.75Z"/><path class="cls-2" d="M799.32,936.21h-240a20.37,20.37,0,0,1,0-40.74h240a20.37,20.37,0,0,1,0,40.74Z"/><path class="cls-2" d="M712,821.87a21.3,21.3,0,0,1-2.24-.12,20.37,20.37,0,0,1-18-22.48l54.81-496.59A20.38,20.38,0,1,1,787,307.14L732.21,803.72A20.4,20.4,0,0,1,712,821.87Z"/><path class="cls-2" d="M620.25,821.91c-.26,0-.5,0-.75,0a20.36,20.36,0,0,1-19.62-21.09l18.54-516.19c.42-11.24,10.17-20.71,21.09-19.61a20.35,20.35,0,0,1,19.62,21.09L640.58,802.27A20.37,20.37,0,0,1,620.25,821.91Z"/><polygon class="cls-2" points="192.16 0 132.79 120.26 0 100.3 95.86 194.4 35.26 314.49 154.22 252.19 250.37 346.81 227.7 214.23 347.09 152.48 214.26 132.52 192.16 0"/></g></g></svg>