<svg xmlns="http://www.w3.org/2000/svg" width="241.034" height="145.576" viewBox="0 0 241.034 145.576">
  <g id="Groupe_124" data-name="Groupe 124" transform="translate(0 0)">
    <path id="Tracé_950" data-name="Tracé 950" d="M8313.943,3438.673H8342.8l10.906-88.448a150.25,150.25,0,0,0-79.543,0l7.9,64.092a50.041,50.041,0,0,1,13.227,24.356Zm24.465-76.28a2.065,2.065,0,1,1,4.105.455l-7,63.5a2.073,2.073,0,0,1-2.051,1.839,2.306,2.306,0,0,1-.236-.012,2.066,2.066,0,0,1-1.822-2.282Zm-16.373-2.352a2.1,2.1,0,0,1,2.139-1.995,2.073,2.073,0,0,1,1.994,2.14l-2.377,66.009a2.064,2.064,0,0,1-2.061,1.992h-.076a2.077,2.077,0,0,1-2-2.14Zm-17.3-1.995a2.148,2.148,0,0,1,2.143,1.995l2.369,66.007a2.064,2.064,0,0,1-1.99,2.14h-.076a2.061,2.061,0,0,1-2.059-1.992l-2.379-66.009A2.069,2.069,0,0,1,8304.732,3358.046Zm-18.338,4.8a2.066,2.066,0,1,1,4.107-.455l7.01,63.5a2.07,2.07,0,0,1-1.822,2.282,2.333,2.333,0,0,1-.236.012,2.062,2.062,0,0,1-2.047-1.839Z" transform="translate(-8186.609 -3321.722)" fill="none"/>
    <path id="Tracé_951" data-name="Tracé 951" d="M8376.567,3812.822h2.707a6.964,6.964,0,0,1,6.25,10.142h34.521l2.516-20.359h-46.283a49.045,49.045,0,0,1,.5,6.664C8376.775,3810.45,8376.648,3811.637,8376.567,3812.822Z" transform="translate(-8266.876 -3681.522)" fill="none"/>
    <path id="Tracé_952" data-name="Tracé 952" d="M7973.007,3736.02a40.5,40.5,0,0,1,6.15-15.238,38.194,38.194,0,0,0-7.7,15.238Z" transform="translate(-7948.667 -3617.207)" fill="none"/>
    <path id="Tracé_953" data-name="Tracé 953" d="M7977.685,3654.232a66.736,66.736,0,0,0-10.118,10.9c-4.465,6.109-7.031,12.168-7.631,18a2.07,2.07,0,0,1-2.058,1.854h-5.9a2.063,2.063,0,0,1-2.033-2.424,42.721,42.721,0,0,1,25.6-31.8,2.066,2.066,0,0,1,2.146,3.467Z" transform="translate(-7931.733 -3562.043)" fill="none"/>
    <path id="Tracé_954" data-name="Tracé 954" d="M8747.52,3468.07v-19.739l-8.9-.113.18,19.852Z" transform="translate(-8551.683 -3402.961)" fill="none"/>
    <path id="Tracé_955" data-name="Tracé 955" d="M8896.136,3881.792l-.072-.049a29.465,29.465,0,0,1-3.981,1.274l-.026.009c-.383.106-.756.213-1.129.313a13.207,13.207,0,0,0-1.8.675l7,.008,7.01-.008a13.46,13.46,0,0,0-1.792-.675c-.371-.1-.744-.207-1.139-.313l-.016-.009a29.7,29.7,0,0,1-3.987-1.274Z" transform="translate(-8669.994 -3743.728)" fill="none"/>
    <path id="Tracé_956" data-name="Tracé 956" d="M8718.965,3570.251c-1.975-1.816-4.207-3.872-4.207-7.651v-2.293h-8.691l.023,2.293c0,3.783-2.236,5.843-4.215,7.657-.477.438-.969.887-1.434,1.372-2.711,2.823-3.5,5.689-3.5,12.784v4.473h19.885a2.068,2.068,0,0,1,2.066,2.067V3619.3a2.069,2.069,0,0,1-2.066,2.068h-19.885v8.836c0,1.222.746,2.3,1.6,2.3h23.775c.842,0,1.588-1.075,1.588-2.3v-45.791c0-7.1-.779-9.963-3.5-12.777C8719.936,3571.14,8719.441,3570.694,8718.965,3570.251Zm-11.514,2.393c-.725.872-1.428,1.63-2.088,2.338-1.947,2.1-2.887,3.194-2.93,5.12v6.488a2.069,2.069,0,0,1-4.139,0v-6.538c.086-3.624,2.01-5.69,4.043-7.883.6-.652,1.252-1.349,1.922-2.159a2.069,2.069,0,1,1,3.191,2.635Z" transform="translate(-8518.93 -3491.066)" fill="none"/>
    <path id="Tracé_957" data-name="Tracé 957" d="M8883.41,3611.19c6.754-1.928,7.48-8.2,7.48-10.808,0-4.8-2.254-15.66-4.424-21.348a28.672,28.672,0,0,0-14.322,0c-2.172,5.688-4.428,16.545-4.428,21.348,0,2.6.727,8.879,7.48,10.808,1.881.539,3.209,2.373,4.107,5.741C8880.205,3613.563,8881.537,3611.729,8883.41,3611.19Z" transform="translate(-8653.162 -3505.074)" fill="none"/>
    <rect id="Rectangle_90" data-name="Rectangle 90" width="17.821" height="24.216" transform="translate(178.014 101.952)" fill="none"/>
    <path id="Tracé_958" data-name="Tracé 958" d="M8340.317,3485.808a1.721,1.721,0,0,0,.228-.012,2.057,2.057,0,0,0,1.819-2.279l-7.009-63.5a2.064,2.064,0,1,0-4.1.455l7.009,63.5A2.067,2.067,0,0,0,8340.317,3485.808Z" transform="translate(-8231.473 -3379.344)" fill="#fff"/>
    <path id="Tracé_959" data-name="Tracé 959" d="M8412.143,3476.611h.073a2.068,2.068,0,0,0,2-2.138l-2.375-66.009a2.143,2.143,0,0,0-2.138-1.994,2.068,2.068,0,0,0-1.994,2.141l2.371,66.009A2.073,2.073,0,0,0,8412.143,3476.611Z" transform="translate(-8291.573 -3370.146)" fill="#fff"/>
    <path id="Tracé_960" data-name="Tracé 960" d="M8543.434,3485.8a1.753,1.753,0,0,0,.233.013,2.058,2.058,0,0,0,2.048-1.839l7.007-63.5a2.064,2.064,0,1,0-4.1-.458l-7.012,63.5A2.067,2.067,0,0,0,8543.434,3485.8Z" transform="translate(-8396.818 -3379.348)" fill="#fff"/>
    <path id="Tracé_961" data-name="Tracé 961" d="M8488.77,3476.611h.077a2.061,2.061,0,0,0,2.065-1.991l2.373-66.009a2.07,2.07,0,0,0-1.99-2.141,2.107,2.107,0,0,0-2.143,1.994l-2.367,66.009A2.059,2.059,0,0,0,8488.77,3476.611Z" transform="translate(-8353.736 -3370.146)" fill="#fff"/>
    <path id="Tracé_962" data-name="Tracé 962" d="M7975.539,3650.765a42.721,42.721,0,0,0-25.6,31.8,2.063,2.063,0,0,0,2.033,2.424h5.9a2.07,2.07,0,0,0,2.058-1.854c.6-5.834,3.166-11.894,7.631-18a66.736,66.736,0,0,1,10.118-10.9,2.066,2.066,0,0,0-2.146-3.467Zm-19.467,30.092h-1.556a38.331,38.331,0,0,1,7.708-15.238A40.542,40.542,0,0,0,7956.072,3680.857Z" transform="translate(-7931.733 -3562.043)" fill="#fff"/>
    <g id="Groupe_117" data-name="Groupe 117">
      <path id="Tracé_963" data-name="Tracé 963" d="M7992.533,3869.671h-4.8c-.031,0-.061.021-.1.021h-95.455c-.031,0-.064-.021-.1-.021h-4.929a2.885,2.885,0,1,0,0,5.77h105.379a2.885,2.885,0,1,0,0-5.77Z" transform="translate(-7880.136 -3734.24)" fill="none"/>
      <rect id="Rectangle_91" data-name="Rectangle 91" width="4.212" height="20.361" transform="translate(129.741 121.083)" fill="none"/>
      <path id="Tracé_964" data-name="Tracé 964" d="M8376.277,3802.6a49.045,49.045,0,0,1,.5,6.664c0,1.181-.127,2.368-.208,3.553h2.707a7,7,0,0,1,4.691,1.831V3802.6Z" transform="translate(-8266.876 -3681.522)" fill="none"/>
      <rect id="Rectangle_92" data-name="Rectangle 92" width="4.222" height="20.361" transform="translate(121.301 121.083)" fill="none"/>
      <path id="Tracé_965" data-name="Tracé 965" d="M8510.729,3822.964h15l2.51-20.359h-17.51Z" transform="translate(-8372.557 -3681.522)" fill="none"/>
      <path id="Tracé_966" data-name="Tracé 966" d="M8011.667,3628.194h9.561c.1-1.183.139-2.373.139-3.554a46.152,46.152,0,0,0-.533-6.663q-.3-2.1-.792-4.133a46.071,46.071,0,0,0-42.174-35.132,2.066,2.066,0,0,1-.815-3.911,3.739,3.739,0,1,0-5.415-3.34,3.716,3.716,0,0,0,2.063,3.34,2.065,2.065,0,0,1-.813,3.911,45.982,45.982,0,0,0-43.5,45.927c0,1.2.048,2.382.137,3.554Z" transform="translate(-7915.603 -3496.895)" fill="none"/>
      <path id="Tracé_967" data-name="Tracé 967" d="M8274.166,3350.225l7.9,64.092a50.041,50.041,0,0,1,13.227,24.356H8342.8l10.906-88.448a150.25,150.25,0,0,0-79.543,0Z" transform="translate(-8186.609 -3321.722)" fill="none"/>
      <path id="Tracé_968" data-name="Tracé 968" d="M8412.18,3802.6v12.048a6.981,6.981,0,0,1,2.33,5.187,6.88,6.88,0,0,1-.772,3.125h2.654V3802.6Z" transform="translate(-8295.091 -3681.522)" fill="#004692"/>
      <rect id="Rectangle_93" data-name="Rectangle 93" width="4.219" height="20.361" transform="translate(133.953 121.083)" fill="#004692"/>
      <path id="Tracé_969" data-name="Tracé 969" d="M8453.418,3802.6h-1.806v20.359h4.219V3802.6Z" transform="translate(-8326.091 -3681.522)" fill="#d60012"/>
      <path id="Tracé_970" data-name="Tracé 970" d="M8034.995,3261.792c-.711-.248-17.786-6.083-42.712-6.083a145.923,145.923,0,0,0-41.3,5.632l11.47-8.306h-17.17l-5.317-16.336-5.222,16.336h-17.17l13.916,10.076-5.38,16.333,13.855-10.142,9.768,7.094,6,48.673a49.884,49.884,0,0,0-23.961-10.26,7.871,7.871,0,1,0-14.078,0,50.12,50.12,0,0,0-43.08,49.635c0,1.2.121,2.373.2,3.555h-2.84a7.017,7.017,0,1,0,0,14.033h91.717c.282.142.585,0,.917,0l27.677.242,27.671-.242a1.863,1.863,0,0,0,2.047-1.573L8036.368,3264A2.07,2.07,0,0,0,8034.995,3261.792Zm-112.758,56.726a2.066,2.066,0,0,0,.815-3.911,3.739,3.739,0,0,1,1.676-7.081,3.735,3.735,0,0,1,1.672,7.081,2.068,2.068,0,0,0,.816,3.911,45.938,45.938,0,0,1,42.173,35.131q.489,2.035.795,4.133a46.166,46.166,0,0,1,.535,6.662c0,1.182-.048,2.371-.146,3.555h-91.7c-.094-1.171-.137-2.359-.137-3.555A45.981,45.981,0,0,1,7922.237,3318.518Zm55.118,59.381H7871.972a2.884,2.884,0,0,1,0-5.768h4.929c.037,0,.065.02.1.02h95.448c.039,0,.064-.02.1-.02h4.8a2.884,2.884,0,0,1,0,5.768Zm40.77.245H7983.6a7.025,7.025,0,0,0-6.248-10.144h-2.71c.087-1.186.2-2.374.2-3.555a49.676,49.676,0,0,0-.489-6.662h46.277Zm3.019-24.494h-47.511a49.945,49.945,0,0,0-13.223-24.354l-7.9-64.094a150.271,150.271,0,0,1,79.545,0Z" transform="translate(-7864.956 -3236.699)" fill="#fff"/>
    </g>
    <path id="Tracé_971" data-name="Tracé 971" d="M8709.253,3602.894c-.665.81-1.317,1.506-1.923,2.158-2.032,2.193-3.95,4.26-4.037,7.883v6.539a2.069,2.069,0,0,0,4.138,0v-6.49c.038-1.923.979-3.019,2.927-5.119.662-.708,1.366-1.465,2.086-2.341a2.068,2.068,0,0,0-3.19-2.631Z" transform="translate(-8523.922 -3523.951)" fill="#fff"/>
    <path id="Tracé_972" data-name="Tracé 972" d="M8706.586,3463.924c-1.892-1.737-2.873-2.731-2.873-4.609v-26.163a4.083,4.083,0,0,0-3.9-4.246h-9.142a4.087,4.087,0,0,0-3.9,4.246v26.163c0,1.881-.988,2.875-2.88,4.611-.54.5-1.1,1.009-1.614,1.557-3.936,4.085-4.657,8.474-4.657,15.644v45.792c0,3.544,2.57,6.428,5.731,6.428h23.777c3.157,0,5.728-2.884,5.728-6.428v-45.792c0-7.178-.723-11.564-4.656-15.641C8707.679,3464.936,8707.124,3464.426,8706.586,3463.924Zm-7-30.772v19.736h-8.729l-.177-19.85Zm-17.823,56.581h17.823v24.216h-17.823Zm26.965,37.187c0,1.223-.743,2.3-1.59,2.3h-23.777c-.849,0-1.6-1.072-1.6-2.3v-8.838h19.887a2.068,2.068,0,0,0,2.068-2.066v-28.349a2.068,2.068,0,0,0-2.068-2.066h-19.887v-4.473c0-7.093.792-9.959,3.5-12.783.469-.483.963-.934,1.438-1.373,1.977-1.814,4.22-3.874,4.22-7.656l-.026-2.294h8.693v2.294c0,3.778,2.23,5.836,4.2,7.648.485.445.964.894,1.444,1.388,2.71,2.813,3.5,5.679,3.5,12.776Z" transform="translate(-8503.741 -3387.782)" fill="#fff"/>
    <path id="Tracé_973" data-name="Tracé 973" d="M8869.98,3607.2c.895-4.518,2.06-4.967,2.19-5.006a12.771,12.771,0,0,0,7.85-5.924,16.187,16.187,0,0,0,2.024-8.062c0-5.437-2.6-17.674-4.977-23.384l-.312-.757-.785-.208a40.824,40.824,0,0,0-8.331-1.208v-.017l-.487.006-.477-.006v.017a41.039,41.039,0,0,0-8.338,1.208l-.782.208-.3.757c-2.386,5.709-4.993,17.946-4.993,23.384a16.085,16.085,0,0,0,2.038,8.062,12.749,12.749,0,0,0,7.842,5.924c.131.04,1.306.489,2.2,5.006a83.8,83.8,0,0,1,1.05,9.675v.067c.031.532.069,1.031.1,1.486V3628c-.847.332-2.333.74-3.271,1l-.034.013c-.388.1-.77.213-1.139.311-1.358.388-5.461,1.983-6.42,4.166a2.434,2.434,0,0,0,.021,2.088l.457.911,12.056,0,12.062,0,.457-.911a2.424,2.424,0,0,0,.019-2.088c-.964-2.183-5.058-3.778-6.421-4.166-.36-.1-.738-.209-1.119-.311l-.048-.013c-.937-.26-2.429-.668-3.276-1l-.007-9.572c.034-.482.07-1,.113-1.562A80.331,80.331,0,0,1,8869.98,3607.2Zm1.241,24.985.015.008c.385.109.768.213,1.132.315a13.15,13.15,0,0,1,1.793.674l-7.009.007-7-.007a13.255,13.255,0,0,1,1.8-.674c.366-.1.741-.206,1.122-.315l.026-.008a28.951,28.951,0,0,0,3.981-1.272l.077.049.073-.049A29.987,29.987,0,0,0,8871.222,3632.188Zm-4.069-27.429c-.9-3.368-2.229-5.2-4.106-5.741-6.754-1.928-7.479-8.2-7.479-10.807,0-4.8,2.253-15.659,4.425-21.349a28.617,28.617,0,0,1,14.327,0c2.169,5.69,4.419,16.545,4.419,21.349,0,2.605-.727,8.879-7.476,10.807C8869.384,3599.556,8868.056,3601.39,8867.152,3604.758Z" transform="translate(-8641.011 -3492.899)" fill="#fff"/>
  </g>
</svg>
