<?xml version="1.0" encoding="utf-8"?>
<!-- Generator: Adobe Illustrator 25.0.1, SVG Export Plug-In . SVG Version: 6.00 Build 0)  -->
<svg version="1.1" id="Calque_1" xmlns="http://www.w3.org/2000/svg" xmlns:xlink="http://www.w3.org/1999/xlink" x="0px" y="0px"
	 viewBox="0 0 1706.9 1274.5" style="enable-background:new 0 0 1706.9 1274.5;" xml:space="preserve">
<style type="text/css">
	.st0{fill:none;stroke:#231F20;stroke-dasharray:8;}
	.st1{fill:url(#SVGID_1_);}
	.st2{fill:url(#SVGID_2_);}
	.st3{opacity:0.11;fill:url(#SVGID_3_);enable-background:new    ;}
	.st4{opacity:0.57;fill:url(#SVGID_4_);enable-background:new    ;}
	.st5{fill:url(#SVGID_5_);}
	.st6{opacity:0.11;fill:url(#SVGID_6_);enable-background:new    ;}
	.st7{opacity:0.43;fill:url(#SVGID_7_);enable-background:new    ;}
	.st8{fill:url(#SVGID_8_);}
	.st9{fill:#C8252C;stroke:#C8252C;stroke-width:2.74;}
	.st10{fill:#808285;}
	.st11{fill:#C8252C;}
</style>
<line class="st0" x1="628.5" y1="1274" x2="1706.9" y2="1274"/>
<radialGradient id="SVGID_1_" cx="216.1974" cy="1210.1837" r="125.5" gradientTransform="matrix(4.9944 0 0 -5.041 0.2903 6420.7993)" gradientUnits="userSpaceOnUse">
	<stop  offset="1.000000e-02" style="stop-color:#C8252C"/>
	<stop  offset="0.69" style="stop-color:#95171A"/>
</radialGradient>
<rect x="614.7" y="256.3" class="st1" width="505.3" height="508.4"/>
<linearGradient id="SVGID_2_" gradientUnits="userSpaceOnUse" x1="452.1476" y1="1084.5286" x2="154.6051" y2="893.6523" gradientTransform="matrix(1 0 0 -1 604.37 1456.3438)">
	<stop  offset="4.000000e-02" style="stop-color:#EAEBEB"/>
	<stop  offset="0.29" style="stop-color:#BCBEC0"/>
	<stop  offset="0.44" style="stop-color:#FFFFFF"/>
	<stop  offset="0.59" style="stop-color:#BCBEC0"/>
	<stop  offset="0.71" style="stop-color:#FFFFFF"/>
	<stop  offset="1" style="stop-color:#9D9FA2"/>
</linearGradient>
<path class="st2" d="M1000.7,576.5c-4.2,11-9.2,21.6-15,31.9c-11.9,23.7-32.5,44.8-62,63.2c-29.4,18.4-57.3,27.6-83.6,27.5H678.3
	l15.6-75.1h162c17.5,0,34.6-7.8,51.2-23.4c16.6-15.6,24.9-32.2,25-50c-1.5-2-57.4-2.5-167.8-1.5c-13.2-0.2-25.4-7.3-32.3-18.7
	c-7.6-11-11.6-24.1-11.5-37.5c-0.5-6.5,1.3-13,5-18.3h296.7L1000.7,576.5z M1037.8,398.8H741.4c2.1-19,10.4-36.7,23.5-50.4
	c14.3-16.1,29.8-24.1,46.6-24.1h241.7L1037.8,398.8z"/>
<radialGradient id="SVGID_3_" cx="-1070.297" cy="707.3656" r="59.44" gradientTransform="matrix(1.6482 -4.7385 4.6948 1.6635 -700.5771 -5970.1504)" gradientUnits="userSpaceOnUse">
	<stop  offset="0.19" style="stop-color:#FFFFFF"/>
	<stop  offset="0.31" style="stop-color:#F6F6F6"/>
	<stop  offset="0.5" style="stop-color:#DEDEDE"/>
	<stop  offset="0.74" style="stop-color:#B8B8B8"/>
	<stop  offset="0.99" style="stop-color:#888888"/>
</radialGradient>
<path class="st3" d="M1244.9,463.2c0,0-349.1-129.7-360.2-124c0,0-393.3-171.1-422.8-181.5c0,0,423.8,163.6,430,158.9
	C891.8,316.7,1229.5,457.8,1244.9,463.2z"/>
<radialGradient id="SVGID_4_" cx="-2220.5828" cy="2341.1338" r="4.75" gradientTransform="matrix(4.9944 0 0 -5.041 3018.7678 7338.0054)" gradientUnits="userSpaceOnUse">
	<stop  offset="0.19" style="stop-color:#FFFFFF"/>
	<stop  offset="0.31" style="stop-color:#F6F6F6"/>
	<stop  offset="0.5" style="stop-color:#DEDEDE"/>
	<stop  offset="0.74" style="stop-color:#B8B8B8"/>
	<stop  offset="0.99" style="stop-color:#888888"/>
</radialGradient>
<path class="st4" d="M918.8,338.2c0,0-26.3-7.5-33-4c-8.3-8-18.2-14.1-29-18c0,0,29.5,7.3,33.2,4.5
	C899,327.5,908.7,333.3,918.8,338.2z"/>
<radialGradient id="SVGID_5_" cx="-1070.8669" cy="714.6956" r="7.48" gradientTransform="matrix(1.6482 -4.7385 4.6948 1.6635 -700.5771 -5970.1504)" gradientUnits="userSpaceOnUse">
	<stop  offset="0.52" style="stop-color:#FFFFFF"/>
	<stop  offset="0.59" style="stop-color:#F6F6F6"/>
	<stop  offset="0.7" style="stop-color:#DEDEDE"/>
	<stop  offset="0.85" style="stop-color:#B8B8B8"/>
	<stop  offset="0.99" style="stop-color:#888888"/>
</radialGradient>
<path class="st5" d="M935.8,345.2c0,0-45.6-15.7-49.6-13.6c0,0-39.1-18.2-49.6-22c0,0,49.9,15.5,52.2,13.9
	C888.8,323.5,930.3,343.3,935.8,345.2z"/>
<radialGradient id="SVGID_6_" cx="-1212.6182" cy="5472.3911" r="45.75" gradientTransform="matrix(4.6948 1.6635 -1.6482 4.7385 15669.4834 -23678.8633)" gradientUnits="userSpaceOnUse">
	<stop  offset="0.19" style="stop-color:#FFFFFF"/>
	<stop  offset="0.31" style="stop-color:#F6F6F6"/>
	<stop  offset="0.5" style="stop-color:#DEDEDE"/>
	<stop  offset="0.74" style="stop-color:#B8B8B8"/>
	<stop  offset="0.99" style="stop-color:#888888"/>
</radialGradient>
<path class="st6" d="M783.8,605.8c0,0,100.4-271.1,94.5-282.3c0,0,136.2-293.1,146.6-322.6c0,0-128.9,323.8-124.3,330
	C900.8,330.4,789.2,589.9,783.8,605.8z"/>
<radialGradient id="SVGID_7_" cx="-1213.4281" cy="5477.7007" r="4.75" gradientTransform="matrix(4.6948 1.6635 -1.6482 4.7385 15669.4834 -23678.8633)" gradientUnits="userSpaceOnUse">
	<stop  offset="0.19" style="stop-color:#FFFFFF"/>
	<stop  offset="0.31" style="stop-color:#F6F6F6"/>
	<stop  offset="0.5" style="stop-color:#DEDEDE"/>
	<stop  offset="0.74" style="stop-color:#B8B8B8"/>
	<stop  offset="0.99" style="stop-color:#888888"/>
</radialGradient>
<path class="st7" d="M879.2,357.6c0,0,7.4-26.6,3.9-33.3c7.9-8.4,14-18.3,17.9-29.2c0,0-7.2,29.8-4.4,33.5
	C889.9,337.7,884.1,347.4,879.2,357.6z"/>
<radialGradient id="SVGID_8_" cx="-1213.3981" cy="5478.041" r="11.13" gradientTransform="matrix(4.6948 1.6635 -1.6482 4.7385 15669.4834 -23678.8633)" gradientUnits="userSpaceOnUse">
	<stop  offset="0.52" style="stop-color:#FFFFFF"/>
	<stop  offset="0.59" style="stop-color:#F6F6F6"/>
	<stop  offset="0.7" style="stop-color:#DEDEDE"/>
	<stop  offset="0.85" style="stop-color:#B8B8B8"/>
	<stop  offset="0.99" style="stop-color:#888888"/>
</radialGradient>
<path class="st8" d="M865.5,403.4c0,0,22.3-74.6,20.2-78.6c0,0,30.5-59.4,34.2-70.1c0,0-27.8,70.6-26.2,72.6
	C893.7,327.4,867.4,397.8,865.5,403.4z"/>
<path class="st9" d="M279,1038.6c-3.7,8.7-8,17.1-12.9,25.2c-10.2,18.8-28.1,35.5-53.7,50.1c-25.6,14.6-49.7,21.9-72.3,21.9H-0.1
	l13.5-59.4h140.2c16.5-0.5,32.3-7.2,44.4-18.6c14.4-12.4,21.6-25.6,21.5-39.7c-1.2-1.5-49.7-1.8-145.3-1.1c-11.2,0-21.6-5.6-28-14.9
	c-6.5-8.6-10-19.1-10-29.9c-0.4-5.3,1.2-10.5,4.5-14.6h256.9L279,1038.6z M311.1,898.1H54.6c2-15.4,9.2-29.7,20.4-40.3
	c12.3-12.8,25.8-19.3,40.4-19.3h209.3L311.1,898.1z"/>
<path class="st10" d="M729.1,928.4c0-91.5-81.7-97.5-81.7-97.5H476.6l0.3,311.4h66.6V972.5L654,1142.8h78.1l-69.7-112.1
	C739.9,1004,729.1,928.4,729.1,928.4z M628.2,972.6h-84.1v-75.1h84.1c20.5,0,37.2,16.8,37.2,37.5
	C665.5,955.7,648.8,972.6,628.2,972.6C628.3,972.6,628.2,972.6,628.2,972.6z M366.7,1141.6h71.9V830.8h-71.9V1141.6z M1451.1,830.9
	v65.5h83.2v245.2h68.9V896.3h70.7l33-65.5L1451.1,830.9z M962.6,1038.8l-68.9-207.9H769.8V1143h71.9V904.8h7.3l76.7,238.1h74
	l79.2-237.3h7.3V1143h70.4V830.8h-123.8L962.6,1038.8z M1388.8,896.4l33-65.5h-225.4v310.7h210.7V1076h-139.6v-58.4h121.7v-65.5
	h-121.7v-55.8L1388.8,896.4z"/>
<path class="st11" d="M328.9,1271.6v-94.4h64.1v16H348v22.5h39v16h-39v40.3L328.9,1271.6z"/>
<path class="st11" d="M408.6,1271.6v-94.4h69.2v16h-50.3v20.9h46.8v16h-46.8v25.6h52.1v16L408.6,1271.6z"/>
<path class="st11" d="M495.7,1271.6v-94.4h39.7c7.3-0.3,14.7,0.5,21.8,2.5c4.5,1.7,8.4,4.9,10.9,9.1c2.7,4.5,4.1,9.6,4,14.9
	c0.2,6.4-2,12.7-6.1,17.5c-5,5-11.5,8.1-18.5,8.7c3.7,2.1,7.1,4.8,10,7.9c4,4.7,7.6,9.8,10.7,15.1l11.4,18.4H557l-13.4-20.4
	c-3-4.8-6.4-9.5-10-13.9c-1.5-1.7-3.5-3.1-5.6-3.9c-3.1-0.8-6.3-1.2-9.5-1.1h-3.8v39.4L495.7,1271.6z M514.6,1217.1h13.9
	c5.7,0.3,11.4-0.1,16.9-1.2c2.2-0.7,4-2.1,5.3-4c1.3-2.1,2-4.6,1.9-7.1c0.4-5.8-3.8-10.9-9.6-11.4c-1.5-0.3-6.1-0.4-13.8-0.4h-14.7
	V1217.1z"/>
<path class="st11" d="M585.1,1240.9l18.3-1.8c0.6,5.2,3,10.1,6.7,13.8c3.9,3.1,8.7,4.7,13.7,4.4c4.9,0.3,9.7-1,13.7-3.9
	c2.9-2.2,4.6-5.5,4.6-9.1c0.1-2.1-0.6-4.1-1.9-5.7c-1.9-2-4.2-3.4-6.8-4.1c-2.2-0.7-7.2-2.1-15-4.1c-7.7-1.4-15-4.6-21.3-9.3
	c-5.5-4.7-8.7-11.7-8.6-19c0-4.8,1.4-9.5,4-13.5c2.8-4.3,6.9-7.6,11.7-9.5c5.9-2.3,12.1-3.5,18.4-3.3c9.5-0.7,18.9,2,26.5,7.8
	c6,5.2,9.4,12.8,9.4,20.7l-18.9,0.9c-0.3-4-2.1-7.7-5-10.4c-3.5-2.4-7.8-3.5-12-3.2c-4.5-0.3-9.1,0.9-12.9,3.4
	c-1.9,1.3-3.1,3.5-3,5.8c0,2.2,1,4.3,2.8,5.7c5.4,3.2,11.2,5.3,17.4,6.3c7,1.5,13.9,3.8,20.4,6.8c4.2,2.2,7.8,5.5,10.3,9.6
	c2.6,4.6,3.9,9.8,3.7,15.1c0,5.4-1.6,10.6-4.5,15.1c-3,4.7-7.4,8.4-12.6,10.5c-6.5,2.5-13.4,3.7-20.4,3.5
	c-9.8,0.6-19.4-2.3-27.2-8.3C589.9,1258.8,585.7,1250.2,585.1,1240.9z"/>
<path class="st11" d="M795.9,1260l-10.8,14c-5.6-2.8-10.7-6.5-15.3-10.8c-3.5,3.3-7.6,5.9-12,7.6c-4.8,1.7-9.9,2.6-15,2.5
	c-9.8,0.7-19.4-3-26.3-10.1c-4.4-4.8-6.9-11.1-6.8-17.6c0-5.9,1.8-11.6,5.4-16.3c4.3-5.4,9.7-9.7,16-12.6c-2.9-3.3-5.3-7-7.2-10.9
	c-1.5-3.1-2.3-6.4-2.4-9.8c0-5.6,2.5-10.9,6.8-14.5c5.5-4.3,12.4-6.4,19.3-5.9c6.9-0.4,13.6,1.8,18.9,6.2c4.4,3.8,6.9,9.3,6.8,15.1
	c0,3.9-1.2,7.6-3.3,10.8c-3.7,4.7-8.3,8.7-13.6,11.6l12.9,17.3c1.8-3.3,3.1-6.9,3.9-10.6l16.2,3.6c-1.1,4.3-2.5,8.6-4.2,12.7
	c-1,2.4-2.3,4.6-3.8,6.8c2.4,2.2,5,4.3,7.7,6.2C791.3,1257,793.6,1258.6,795.9,1260z M740.2,1228.4c-3.6,1.7-6.8,4.3-9.2,7.5
	c-1.9,2.6-3,5.8-3,9.1c-0.1,3.6,1.2,7.1,3.8,9.6c2.7,2.5,6.3,3.8,10,3.7c2.8,0,5.5-0.6,8.1-1.7c3.1-1.5,5.9-3.3,8.5-5.5
	L740.2,1228.4z M747.2,1208.8l5-3.7c3-1.8,4.9-4.8,5.3-8.3c0-2.3-0.9-4.4-2.5-5.9c-1.9-1.7-4.4-2.5-7-2.4c-2.5-0.2-5,0.5-7,2.1
	c-1.5,1.2-2.4,3.1-2.4,5c0.4,3.1,1.8,6,4,8.1L747.2,1208.8z"/>
<path class="st11" d="M843.6,1271.6v-94.4h28.3l16.9,64.4l16.7-64.4h28.3v94.4h-17.5v-74.3l-18.5,74.3h-18.2l-18.6-74.3v74.3H843.6z
	"/>
<path class="st11" d="M952.6,1271.6v-94.4h69.2v16h-50.3v20.9h46.8v16h-46.8v25.6h52.1v16L952.6,1271.6z"/>
<path class="st11" d="M1060.6,1271.6v-78.4h-27.7v-16h74.3v16h-27.7v78.4H1060.6z"/>
<path class="st11" d="M1193.9,1271.6h-20.5l-7.9-21.4h-37.4l-7.7,21.4h-20l36.4-94.4h20L1193.9,1271.6z M1159.2,1234.2l-12.9-35
	l-12.6,35H1159.2z"/>
<path class="st11" d="M1203.8,1177.2h18.9v51.1c-0.2,5.3,0.1,10.5,0.7,15.8c0.7,3.7,2.7,7,5.7,9.3c3.6,2.5,8,3.8,12.4,3.5
	c4.3,0.3,8.6-0.9,12.1-3.3c2.6-2,4.4-4.9,5-8.2c0.7-5.3,1-10.6,0.8-16v-52.2h18.9v49.6c0.2,8-0.3,16.1-1.5,24
	c-0.9,4.4-2.8,8.4-5.6,11.8c-3,3.4-6.8,6-11,7.7c-5.8,2.1-11.9,3.1-18,2.9c-6.9,0.3-13.8-0.7-20.3-3.1c-4.2-1.8-8-4.6-10.9-8.1
	c-2.4-3.1-4.1-6.6-5-10.4c-1.5-7.9-2.1-15.9-1.8-23.9L1203.8,1177.2z"/>
<path class="st11" d="M1288.7,1271.6l32.3-49.1l-29.3-45.4h22l18.5,28.2l18.6-28.2h21.9l-29.4,45.4l32.3,49.2h-22.7l-20.7-32
	l-20.8,32L1288.7,1271.6z"/>
</svg>
